<svg id="Layer_1" data-name="Layer 1" xmlns="http://www.w3.org/2000/svg" width="143" height="80" viewBox="0 0 143 80"><defs><style>.cls-1{fill:#252b33;}</style></defs><title>PISERVE</title><path class="cls-1" d="M25.94,12.64A24.72,24.72,0,0,0,1.24,37.34h0v41.5H10V56.21a24.69,24.69,0,1,0,15.9-43.57Zm0,40.6a15.9,15.9,0,1,1,15.9-15.9A15.92,15.92,0,0,1,25.94,53.24Z"/><path class="cls-1" d="M51.79,6.72a5.56,5.56,0,1,1-5.56-5.56,5.56,5.56,0,0,1,5.56,5.56"/><path class="cls-1" d="M65.22,36.58a.5.5,0,0,1,.5-.5h6.22a5.9,5.9,0,1,1,0,11.8H68.66V54.1a.52.52,0,0,1-.5.5H65.72a.5.5,0,0,1-.5-.5Zm6.51,8.07a2.73,2.73,0,0,0,2.73-2.75,2.64,2.64,0,0,0-2.73-2.57H68.66v5.32Z"/><path class="cls-1" d="M79.43,38.43a1.81,1.81,0,0,1,1.8-1.83,1.83,1.83,0,1,1,0,3.65A1.81,1.81,0,0,1,79.43,38.43Zm.24,6.09a.5.5,0,0,1,.5-.5h2.2a.5.5,0,0,1,.5.5V54.1a.52.52,0,0,1-.5.5h-2.2a.52.52,0,0,1-.5-.5Z"/><path class="cls-1" d="M85.36,52l1-1.64a.61.61,0,0,1,.9-.19c.13.08,2.28,1.64,4,1.64a2.21,2.21,0,0,0,2.41-2c0-1.35-1.14-2.28-3.36-3.18-2.49-1-5-2.59-5-5.72,0-2.36,1.75-5.08,6-5.08a9.32,9.32,0,0,1,5.29,1.77.66.66,0,0,1,.16.87l-1,1.51a.7.7,0,0,1-.93.32,8.71,8.71,0,0,0-3.68-1.46,2.11,2.11,0,0,0-2.33,1.85c0,1.24,1,2.09,3.12,3,2.57,1,5.53,2.57,5.53,6,0,2.73-2.36,5.24-6.09,5.24a8.52,8.52,0,0,1-5.82-2.06C85.25,52.57,85.12,52.44,85.36,52Z"/><path class="cls-1" d="M104.44,43.75a4.85,4.85,0,0,1,4.95,4.92,6.53,6.53,0,0,1-.05.71.51.51,0,0,1-.5.45h-6.78a2.52,2.52,0,0,0,2.54,2.3,3.68,3.68,0,0,0,2.06-.66c.26-.16.5-.21.69,0l1.09,1.24a.44.44,0,0,1,0,.69,5.7,5.7,0,0,1-3.94,1.46,5.56,5.56,0,0,1,0-11.12ZM106.29,48a2,2,0,0,0-1.93-1.8A2.08,2.08,0,0,0,102.3,48Z"/><path class="cls-1" d="M111.61,44.52a.5.5,0,0,1,.5-.5h1a.48.48,0,0,1,.48.34l.37,1a3.7,3.7,0,0,1,3-1.64c1.24,0,2.36.4,2,1.06l-1,1.72a.47.47,0,0,1-.61.24,2.88,2.88,0,0,0-.77-.16,2.14,2.14,0,0,0-1.88,1.09v6.4c0,.37-.24.5-.61.5h-2a.52.52,0,0,1-.5-.5Z"/><path class="cls-1" d="M119.74,44.65c-.16-.34,0-.64.37-.64h2.3a.49.49,0,0,1,.48.29L125,49.23h.05l2.28-4.92c.13-.26.34-.29.64-.29h2.06c.4,0,.56.29.37.64l-4.84,10a.5.5,0,0,1-.45.26H125a.5.5,0,0,1-.45-.26Z"/><path class="cls-1" d="M136.81,43.75a4.85,4.85,0,0,1,4.95,4.92,6.53,6.53,0,0,1-.05.71.51.51,0,0,1-.5.45h-6.78a2.52,2.52,0,0,0,2.54,2.3,3.68,3.68,0,0,0,2.06-.66c.26-.16.5-.21.69,0l1.09,1.24a.44.44,0,0,1,0,.69,5.7,5.7,0,0,1-3.94,1.46,5.56,5.56,0,0,1,0-11.12ZM138.66,48a2,2,0,0,0-1.93-1.8,2.08,2.08,0,0,0-2.06,1.8Z"/></svg>
